<!-- Generated by IcoMoon.io -->
<svg version="1.1" xmlns="http://www.w3.org/2000/svg" width="33" height="32" viewBox="0 0 33 32">
<title>private-outpatient</title>
<path fill="#8d8559" d="M16.382 3.248c0.143 0.096 0.239 0.143 0.334 0.191 0.716 0.43 1.433 0.86 2.197 1.29 0.191 0.143 0.334 0.287 0.191 0.525s-0.334 0.239-0.573 0.096c-1.194-0.716-2.388-1.433-3.534-2.149-0.334-0.191-0.334-0.525 0-0.716 1.146-0.716 2.34-1.385 3.487-2.102 0.191-0.143 0.382-0.143 0.525 0.096 0.143 0.191 0.096 0.382-0.143 0.525-0.716 0.43-1.385 0.86-2.102 1.242-0.096 0.048-0.191 0.096-0.287 0.191 0.621 0.048 1.242 0.096 1.863 0.143 3.916 0.525 7.116 2.293 9.552 5.349 1.815 2.197 2.818 4.776 3.152 7.642 0.764 7.26-4.107 14.042-11.224 15.666-7.498 1.719-14.949-2.484-17.194-9.791-1.528-4.919-0.621-9.504 2.579-13.564 0.096-0.096 0.239-0.239 0.382-0.239 0.096 0 0.287 0.096 0.287 0.191 0.048 0.143 0 0.334-0.048 0.43-0.382 0.573-0.812 1.098-1.146 1.672-1.528 2.531-2.197 5.254-1.958 8.215 0.478 5.97 4.537 10.794 10.269 12.37 7.499 2.006 15.284-2.722 16.955-10.269 1.528-6.878-2.054-13.612-8.645-16.143-1.528-0.573-3.104-0.86-4.728-0.86 0 0-0.096 0-0.191 0z"></path>
<path fill="#8d8559" d="M16.525 7.642c5.206 0 9.457 4.298 9.457 9.504-0.048 5.206-4.299 9.457-9.504 9.409-5.206 0-9.457-4.299-9.457-9.504 0.048-5.206 4.299-9.457 9.504-9.409zM7.737 17.099c0 4.824 3.916 8.74 8.74 8.74s8.74-3.916 8.74-8.74c0-4.824-3.916-8.74-8.74-8.74s-8.74 3.916-8.74 8.74z"></path>
<path fill="#8d8559" d="M16.573 21.827c-0.955-0.048-1.815-0.191-2.484-0.764-0.191-0.143-0.334-0.334-0.478-0.525s-0.096-0.382 0.096-0.478c0.143-0.048 0.382-0.048 0.43 0.048 1.003 1.099 2.293 1.146 3.582 0.716 0.382-0.143 0.669-0.43 0.955-0.716 0.191-0.143 0.334-0.287 0.573-0.143 0.191 0.143 0.191 0.334 0.048 0.573-0.525 0.716-1.242 1.003-2.054 1.146-0.239 0.143-0.478 0.143-0.669 0.143z"></path>
<path fill="#8d8559" d="M13.946 14.902c0 0.382-0.334 0.716-0.716 0.716s-0.716-0.334-0.716-0.716c0-0.382 0.334-0.716 0.716-0.716s0.716 0.334 0.716 0.716z"></path>
<path fill="#8d8559" d="M19.773 15.618c-0.382 0-0.716-0.334-0.716-0.716s0.334-0.716 0.764-0.716c0.382 0 0.716 0.334 0.716 0.716-0.048 0.382-0.382 0.716-0.764 0.716z"></path>
</svg>
