<!-- Generated by IcoMoon.io -->
<svg version="1.1" xmlns="http://www.w3.org/2000/svg" width="33" height="32" viewBox="0 0 33 32">
<title>referal-pathways</title>
<path fill="#8d8559" d="M17.29 30.854c-7.164-0.048-13.087-4.681-14.758-11.272-2.006-8.072 3.009-16.239 11.081-18.054 1.051-0.239 2.101-0.382 3.152-0.382 0.478 0 0.764 0.191 0.764 0.573s-0.287 0.621-0.764 0.669c-1.337 0-2.627 0.191-3.869 0.621-4.776 1.624-7.976 4.872-9.17 9.887-1.194 5.063 0.239 9.457 3.964 13.087 2.101 2.054 4.681 3.2 7.594 3.534 4.537 0.525 8.454-0.907 11.606-4.203 2.054-2.149 3.248-4.728 3.582-7.69 0.048-0.525 0.096-1.003 0.096-1.528 0.048-0.382 0.287-0.669 0.621-0.669s0.621 0.287 0.621 0.669c-0.096 4.728-1.958 8.597-5.636 11.558-2.006 1.624-4.346 2.627-6.878 3.057-0.812 0.048-1.576 0.096-2.006 0.143z"></path>
<path fill="#8d8559" d="M26.412 8.119c-0.764 0.764-1.481 1.528-2.245 2.245-0.143 0.143-0.334 0.287-0.525 0.287s-0.382-0.143-0.525-0.334c-0.143-0.191-0.096-0.43 0.048-0.621 0.048-0.048 0.096-0.143 0.191-0.191 1.099-1.098 2.149-2.197 3.248-3.248 0.287-0.287 0.669-0.287 0.955 0 1.099 1.098 2.245 2.245 3.343 3.343 0.287 0.287 0.334 0.669 0.048 0.907-0.239 0.287-0.621 0.239-0.955-0.048-0.669-0.669-1.385-1.337-2.054-2.054-0.048-0.048-0.143-0.143-0.287-0.239 0 0.191 0 0.287 0 0.382 0 2.579 0.048 5.206 0 7.785-0.096 3.725-1.767 6.591-4.872 8.645-2.054 1.385-4.394 1.91-6.83 1.672-4.824-0.43-8.836-4.203-9.552-8.979-0.86-5.684 2.722-10.937 8.406-12.131 0.669-0.143 1.385-0.191 2.101-0.239 0.43-0.048 0.669 0.239 0.716 0.573 0 0.334-0.287 0.621-0.669 0.621-0.907 0-1.815 0.096-2.675 0.382-3.63 1.242-5.922 3.725-6.639 7.451-0.907 5.11 2.293 9.839 7.355 10.89 5.11 1.099 10.030-2.149 11.176-7.212 0.143-0.716 0.239-1.433 0.239-2.149 0.048-2.484 0-5.015 0-7.498 0-0.048 0-0.096 0-0.239z"></path>
<path fill="#8d8559" d="M16.955 21.206c2.866 0 5.158-2.245 5.206-5.11 0-0.43 0.239-0.716 0.621-0.716s0.621 0.287 0.621 0.764c0 3.152-2.531 5.922-5.636 6.257-3.534 0.43-6.591-1.863-7.212-5.397-0.573-3.343 1.863-6.83 5.254-7.355 0.334-0.048 0.716-0.096 1.051-0.096 0.382 0 0.669 0.239 0.716 0.621 0 0.334-0.287 0.621-0.669 0.621-3.057 0.096-5.349 2.579-5.158 5.636 0.143 2.675 2.484 4.776 5.206 4.776z"></path>
</svg>
