<!-- Generated by IcoMoon.io -->
<svg version="1.1" xmlns="http://www.w3.org/2000/svg" width="33" height="32" viewBox="0 0 33 32">
<title>what-is-hypnozis</title>
<path fill="#8d8559" d="M17.337 0.764c0.764 0.191 1.242 0.478 1.672 1.051 0.669 0.812 0.907 1.767 0.525 2.77-0.287 0.764-0.716 1.481-1.051 2.197-0.191 0.43-0.43 0.812-0.573 1.242-0.239 0.525-0.048 0.955 0.334 1.337 0.478 0.525 1.099 0.764 1.767 0.86 0.191 0.048 0.43 0.048 0.669 0 0.478-0.048 0.812-0.334 0.955-0.764 0.239-0.764 0.478-1.528 0.764-2.293 0.143-0.43 0.334-0.86 0.478-1.242 0.525-1.242 1.863-1.624 2.722-1.576 1.194 0.096 2.054 0.621 2.484 1.767 0.43 1.194 0.191 2.293-0.716 3.2-0.287 0.287-0.716 0.478-1.099 0.621-0.573 0.239-1.194 0.43-1.767 0.621-0.382 0.143-0.764 0.239-1.146 0.382-0.907 0.287-1.099 0.86-1.003 1.624 0.048 0.669 0.334 1.242 0.764 1.767 0.478 0.525 1.003 0.669 1.672 0.334s1.29-0.669 1.958-1.003c0.621-0.287 1.242-0.573 1.863-0.716 1.385-0.287 2.913 0.86 3.2 2.293 0.382 1.815-1.337 3.678-3.152 3.391-0.478-0.096-0.955-0.287-1.433-0.478-0.812-0.382-1.624-0.812-2.436-1.242-0.621-0.287-1.146-0.191-1.624 0.334-0.573 0.621-0.86 1.337-0.812 2.149 0 0.573 0.334 1.003 0.86 1.194 0.812 0.287 1.672 0.525 2.484 0.812 0.43 0.143 0.812 0.334 1.194 0.525 1.099 0.621 1.624 2.102 1.194 3.391-0.382 1.242-1.576 2.006-2.866 1.91-1.194-0.096-2.054-0.621-2.484-1.767-0.239-0.621-0.478-1.29-0.669-1.958-0.143-0.43-0.287-0.86-0.43-1.29-0.239-0.621-0.669-0.955-1.337-0.907-0.764 0.048-1.481 0.287-2.054 0.86-0.525 0.478-0.621 0.955-0.287 1.624 0.191 0.382 0.382 0.764 0.573 1.194 0.334 0.669 0.669 1.29 0.955 2.006 0.478 1.194 0.096 2.436-0.907 3.248-0.812 0.669-1.719 0.86-2.675 0.478-1.051-0.382-1.672-1.194-1.91-2.245-0.096-0.525 0-1.003 0.191-1.481 0.287-0.621 0.573-1.29 0.907-1.91 0.239-0.43 0.478-0.907 0.669-1.337 0.239-0.478 0.191-0.955-0.143-1.337-0.669-0.764-1.528-1.099-2.579-1.003-0.478 0.048-0.812 0.334-0.955 0.764-0.287 0.812-0.525 1.672-0.812 2.484-0.096 0.334-0.287 0.669-0.43 1.003-0.525 1.242-1.863 1.624-2.722 1.576-1.194-0.048-2.101-0.621-2.484-1.767-0.43-1.194-0.239-2.293 0.716-3.2 0.287-0.239 0.621-0.43 0.955-0.573 0.669-0.287 1.385-0.478 2.102-0.716 0.43-0.143 0.812-0.287 1.242-0.43 0.525-0.239 0.716-0.669 0.716-1.194 0-0.86-0.334-1.576-0.907-2.149-0.43-0.43-0.907-0.525-1.481-0.239-0.43 0.239-0.907 0.478-1.337 0.669-0.669 0.334-1.337 0.669-2.006 0.955-1.337 0.525-2.77-0.287-3.391-1.29-0.669-1.146-0.478-2.531 0.525-3.439 0.86-0.764 1.863-1.051 2.961-0.621 0.716 0.287 1.385 0.669 2.054 1.003 0.43 0.191 0.86 0.43 1.29 0.621s0.812 0.096 1.194-0.143c0.716-0.525 1.242-1.767 1.051-2.675-0.096-0.573-0.382-0.907-0.812-1.051-0.812-0.287-1.624-0.525-2.388-0.764-0.382-0.143-0.764-0.287-1.098-0.478-1.098-0.525-1.576-1.481-1.576-2.675 0-1.146 0.573-2.054 1.672-2.531 1.146-0.478 2.197-0.287 3.104 0.525 0.239 0.191 0.43 0.478 0.573 0.764 0.334 0.812 0.573 1.624 0.86 2.436 0.143 0.43 0.287 0.812 0.43 1.242 0.191 0.478 0.716 0.764 1.29 0.716 0.716-0.048 1.337-0.287 1.91-0.764 0.573-0.525 0.716-1.051 0.382-1.719-0.191-0.382-0.382-0.764-0.573-1.146-0.334-0.669-0.669-1.29-0.907-1.958-0.478-1.29-0.096-2.627 1.051-3.391 0.812-0.573 1.719-0.573 2.102-0.478zM12.036 12.37c0 0.907-0.478 1.958-1.146 2.531-0.573 0.478-1.194 0.669-1.91 0.43-0.43-0.143-0.812-0.382-1.194-0.573-0.764-0.382-1.528-0.764-2.293-1.098-0.334-0.143-0.716-0.191-1.098-0.096-1.385 0.287-2.245 1.767-1.719 3.009 0.382 0.907 1.624 1.91 2.961 1.29 0.287-0.143 0.573-0.239 0.812-0.334 0.764-0.382 1.481-0.812 2.245-1.146 0.812-0.382 1.576-0.239 2.197 0.382 0.716 0.716 1.051 1.576 1.051 2.531 0 0.764-0.287 1.433-1.051 1.767-0.43 0.191-0.907 0.334-1.385 0.478-0.716 0.239-1.433 0.43-2.101 0.716-0.86 0.334-1.29 1.003-1.385 1.863-0.143 1.051 0.478 2.054 1.433 2.388 1.051 0.334 2.34-0.096 2.77-1.003 0.191-0.478 0.43-1.003 0.573-1.481 0.239-0.716 0.43-1.433 0.716-2.149 0.239-0.621 0.669-1.003 1.337-1.099 1.146-0.239 2.722 0.43 3.296 1.433 0.287 0.478 0.382 1.003 0.191 1.576-0.143 0.382-0.382 0.764-0.573 1.194-0.382 0.764-0.764 1.481-1.098 2.245-0.096 0.239-0.191 0.573-0.143 0.86 0.048 1.003 0.86 1.958 1.815 2.149s1.958-0.287 2.484-1.242c0.287-0.525 0.382-1.099 0.143-1.672-0.191-0.525-0.43-1.003-0.669-1.528-0.287-0.573-0.621-1.146-0.907-1.719-0.382-0.86-0.239-1.624 0.382-2.245s1.337-0.955 2.197-1.051c0.955-0.096 1.719 0.287 2.054 1.003 0.191 0.43 0.334 0.907 0.478 1.337 0.239 0.716 0.478 1.481 0.716 2.197 0.287 0.812 0.907 1.194 1.767 1.337 1.099 0.191 2.102-0.43 2.436-1.433s-0.048-2.34-1.051-2.77c-0.525-0.239-1.051-0.43-1.576-0.621-0.669-0.239-1.337-0.43-2.006-0.669-0.573-0.191-0.955-0.669-1.099-1.29-0.287-1.146 0.43-2.77 1.433-3.391 0.478-0.287 1.003-0.382 1.528-0.191 0.43 0.143 0.812 0.382 1.194 0.573 0.812 0.382 1.576 0.764 2.388 1.146 0.382 0.191 0.764 0.143 1.146 0.048 1.242-0.334 2.006-1.624 1.719-2.77-0.287-1.098-1.672-2.149-3.009-1.576-0.478 0.191-0.907 0.382-1.385 0.621-0.573 0.287-1.194 0.621-1.767 0.907-0.812 0.382-1.576 0.239-2.197-0.382-0.716-0.716-1.099-1.624-1.099-2.627 0-0.716 0.287-1.337 0.955-1.672 0.43-0.191 0.907-0.334 1.337-0.478 0.764-0.239 1.528-0.478 2.245-0.764 0.907-0.334 1.29-1.098 1.337-2.054 0.048-1.051-0.573-1.958-1.528-2.197-1.003-0.239-2.245 0.096-2.675 1.099-0.191 0.43-0.382 0.907-0.525 1.337-0.239 0.716-0.478 1.481-0.716 2.197-0.239 0.621-0.669 1.003-1.337 1.146-1.099 0.239-2.675-0.43-3.296-1.385-0.334-0.525-0.43-1.098-0.191-1.672 0.191-0.43 0.382-0.812 0.573-1.194 0.334-0.669 0.716-1.385 1.003-2.054 0.143-0.287 0.191-0.573 0.191-0.907 0-1.051-0.907-2.054-1.91-2.245-1.003-0.143-2.101 0.478-2.484 1.528 0 0.478-0.048 0.907 0.143 1.385 0.191 0.525 0.43 1.003 0.669 1.528 0.287 0.621 0.621 1.194 0.955 1.815 0.382 0.764 0.239 1.528-0.334 2.149-0.669 0.716-1.528 1.098-2.531 1.146-0.764 0.048-1.433-0.287-1.767-1.003-0.191-0.43-0.334-0.86-0.478-1.29-0.239-0.764-0.478-1.528-0.764-2.293-0.334-0.907-1.098-1.337-2.054-1.337-1.051-0.048-1.958 0.621-2.197 1.624-0.239 0.955 0.096 2.197 1.146 2.627 0.382 0.143 0.764 0.334 1.146 0.478 0.764 0.239 1.528 0.478 2.293 0.764 0.812 0.287 1.194 0.907 1.194 1.863z"></path>
<path fill="#8d8559" d="M16.812 20.299c-2.484 0-4.49-2.006-4.49-4.49s2.006-4.49 4.49-4.49c2.484 0 4.49 2.006 4.49 4.49 0.048 2.484-1.958 4.49-4.49 4.49zM16.812 11.893c-2.149 0-3.916 1.719-3.916 3.869 0 2.197 1.719 3.964 3.916 3.964 2.149 0 3.916-1.767 3.916-3.916s-1.719-3.916-3.916-3.916z"></path>
</svg>
