<svg id="Layer_1" data-name="Layer 1" xmlns="http://www.w3.org/2000/svg" viewBox="0 0 695.21 708"><defs><style>.cls-1{fill:none;stroke:#fff;stroke-miterlimit:10;stroke-width:2px;}.cls-2{fill:#fff;}</style></defs><title>MSUPC-logo-version-WHITE</title><circle class="cls-1" cx="347.6" cy="354" r="271.73"/><polygon class="cls-1" points="435.16 322.25 435.16 221.14 347.61 170.59 260.05 221.14 260.05 322.25 347.61 372.8 435.16 322.25"/><path class="cls-1" d="M347.76,195.56l39,39H308.44S347.76,193.68,347.76,195.56Z"/><path class="cls-1" d="M347.76,241.74l39,39H308.44S347.76,239.87,347.76,241.74Z"/><path class="cls-1" d="M347.76,287.92l39,39H308.44S347.76,286,347.76,287.92Z"/><path class="cls-2" d="M188.9,427.54a1.79,1.79,0,0,1,1.91-1.59h1.7a1.93,1.93,0,0,1,1.8,1.06l23.35,50.1H218L241.34,427a1.83,1.83,0,0,1,1.81-1.06h1.7a1.79,1.79,0,0,1,1.91,1.59l12.53,71.33a1.84,1.84,0,0,1-1.91,2.44h-9.66a2.3,2.3,0,0,1-2-1.59l-6.26-40.23h-.32l-18.58,41.71a1.8,1.8,0,0,1-1.8,1.17h-1.91a1.91,1.91,0,0,1-1.8-1.17l-18.79-41.71h-.32l-6.16,40.23a2.05,2.05,0,0,1-1.91,1.59h-9.55a1.94,1.94,0,0,1-2-2.44Z"/><path class="cls-2" d="M266.62,490.91l3.82-6.58a2.46,2.46,0,0,1,3.61-.74c.53.32,9.13,6.58,16,6.58,5.52,0,9.66-3.61,9.66-8.17,0-5.41-4.56-9.13-13.48-12.74-10-4-20-10.4-20-22.93,0-9.45,7-20.38,23.88-20.38a37.37,37.37,0,0,1,21.23,7.11,2.63,2.63,0,0,1,.64,3.5l-4,6c-.85,1.27-2.44,2.12-3.72,1.27-.85-.53-8.92-5.84-14.75-5.84-6,0-9.34,4-9.34,7.43,0,5,3.93,8.39,12.53,11.89,10.3,4.14,22.18,10.3,22.18,24,0,10.93-9.45,21-24.41,21-13.37,0-21.23-6.26-23.35-8.28C266.2,493.14,265.67,492.61,266.62,490.91Z"/><path class="cls-2" d="M324.58,429a2.09,2.09,0,0,1,2-2h10.08a2,2,0,0,1,2,2v43.41c0,9,6.16,16.13,15.39,16.13s15.5-7.11,15.5-16V429a2,2,0,0,1,2-2h10.08a2.09,2.09,0,0,1,2,2v44.16c0,16.13-12.84,29.19-29.61,29.19a29.11,29.11,0,0,1-29.51-29.19Z"/><path class="cls-2" d="M399.37,429a2,2,0,0,1,2-2h24.94a23.67,23.67,0,1,1,.11,47.34H413.17V499.3a2.09,2.09,0,0,1-2,2h-9.76a2,2,0,0,1-2-2Zm26.11,32.37a10.94,10.94,0,0,0,10.93-11c0-5.84-5-10.3-10.93-10.3H413.17V461.4Z"/><path class="cls-2" d="M493.67,425.95c10.72,0,18.47,3.4,25.69,9.87a2,2,0,0,1,.11,3L513,445.48a1.7,1.7,0,0,1-2.65,0A25.11,25.11,0,0,0,494,439.22c-13.59,0-23.67,11.36-23.67,24.73s10.19,24.52,23.78,24.52a25.48,25.48,0,0,0,16.24-6.05,2,2,0,0,1,2.65,0l6.58,6.79a2,2,0,0,1-.11,2.87,36.43,36.43,0,0,1-25.79,10.3,38.21,38.21,0,1,1,0-76.42Z"/></svg>