<?xml version="1.0" encoding="utf-8"?>
<!-- Generator: Adobe Illustrator 21.0.0, SVG Export Plug-In . SVG Version: 6.00 Build 0)  -->
<svg version="1.1" id="Layer_1" xmlns="http://www.w3.org/2000/svg" xmlns:xlink="http://www.w3.org/1999/xlink" x="0px" y="0px"
	 viewBox="0 0 69 67" style="enable-background:new 0 0 69 67;" xml:space="preserve">
<style type="text/css">
	.st0{fill:#8D8559;stroke:#8D8559;stroke-width:0.5;stroke-miterlimit:10;}
</style>
<g>
	<path class="st0" d="M34.3,6.8c0.3,0.2,0.5,0.3,0.7,0.4c1.5,0.9,3,1.8,4.6,2.7c0.4,0.3,0.7,0.6,0.4,1.1c-0.3,0.5-0.7,0.5-1.2,0.2
		c-2.5-1.5-5-3-7.4-4.5c-0.7-0.4-0.7-1.1,0-1.5c2.4-1.5,4.9-2.9,7.3-4.4c0.4-0.3,0.8-0.3,1.1,0.2c0.3,0.4,0.2,0.8-0.3,1.1
		c-1.5,0.9-2.9,1.8-4.4,2.6c-0.2,0.1-0.4,0.2-0.6,0.4c1.3,0.1,2.6,0.2,3.9,0.3c8.2,1.1,14.9,4.8,20,11.2c3.8,4.6,5.9,10,6.6,16
		c1.6,15.2-8.6,29.4-23.5,32.8C25.8,69,10.2,60.2,5.5,44.9c-3.2-10.3-1.3-19.9,5.4-28.4c0.2-0.2,0.5-0.5,0.8-0.5
		c0.2,0,0.6,0.2,0.6,0.4c0.1,0.3,0,0.7-0.1,0.9c-0.8,1.2-1.7,2.3-2.4,3.5c-3.2,5.3-4.6,11-4.1,17.2c1,12.5,9.5,22.6,21.5,25.9
		c15.7,4.2,32-5.7,35.5-21.5C65.9,28,58.4,13.9,44.6,8.6c-3.2-1.2-6.5-1.8-9.9-1.8C34.7,6.8,34.5,6.8,34.3,6.8z"/>
	<path class="st0" d="M34.6,16c10.9,0,19.8,9,19.8,19.9c-0.1,10.9-9,19.8-19.9,19.7c-10.9,0-19.8-9-19.8-19.9
		C14.8,24.8,23.7,15.9,34.6,16z M16.2,35.8c0,10.1,8.2,18.3,18.3,18.3c10.1,0,18.3-8.2,18.3-18.3c0-10.1-8.2-18.3-18.3-18.3
		C24.4,17.5,16.2,25.7,16.2,35.8z"/>
	<path class="st0" d="M34.7,45.7c-2-0.1-3.8-0.4-5.2-1.6c-0.4-0.3-0.7-0.7-1-1.1c-0.3-0.4-0.2-0.8,0.2-1c0.3-0.1,0.8-0.1,0.9,0.1
		c2.1,2.3,4.8,2.4,7.5,1.5c0.8-0.3,1.4-0.9,2-1.5c0.4-0.3,0.7-0.6,1.2-0.3c0.4,0.3,0.4,0.7,0.1,1.2c-1.1,1.5-2.6,2.1-4.3,2.4
		C35.6,45.7,35.1,45.7,34.7,45.7z"/>
	<path class="st0" d="M29.2,31.2c0,0.8-0.7,1.5-1.5,1.5c-0.8,0-1.5-0.7-1.5-1.5c0-0.8,0.7-1.5,1.5-1.5
		C28.5,29.7,29.2,30.4,29.2,31.2z"/>
	<path class="st0" d="M41.4,32.7c-0.8,0-1.5-0.7-1.5-1.5c0-0.8,0.7-1.5,1.6-1.5c0.8,0,1.5,0.7,1.5,1.5C42.9,32,42.2,32.7,41.4,32.7z
		"/>
</g>
</svg>
