<?xml version="1.0" encoding="utf-8"?>
<!-- Generator: Adobe Illustrator 21.0.0, SVG Export Plug-In . SVG Version: 6.00 Build 0)  -->
<svg version="1.1" id="Layer_1" xmlns="http://www.w3.org/2000/svg" xmlns:xlink="http://www.w3.org/1999/xlink" x="0px" y="0px"
	 viewBox="0 0 69 67" style="enable-background:new 0 0 69 67;" xml:space="preserve">
<style type="text/css">
	.st0{fill:#8D8559;}
</style>
<g>
	<path class="st0" d="M36.2,64.6C21.2,64.5,8.8,54.8,5.3,41C1.1,24.1,11.6,7,28.5,3.2c2.2-0.5,4.4-0.8,6.6-0.8c1,0,1.6,0.4,1.6,1.2
		c0,0.8-0.6,1.3-1.6,1.4c-2.8,0-5.5,0.4-8.1,1.3C17,9.7,10.3,16.5,7.8,27c-2.5,10.6,0.5,19.8,8.3,27.4c4.4,4.3,9.8,6.7,15.9,7.4
		c9.5,1.1,17.7-1.9,24.3-8.8c4.3-4.5,6.8-9.9,7.5-16.1c0.1-1.1,0.2-2.1,0.2-3.2c0.1-0.8,0.6-1.4,1.3-1.4c0.7,0,1.3,0.6,1.3,1.4
		c-0.2,9.9-4.1,18-11.8,24.2c-4.2,3.4-9.1,5.5-14.4,6.4C38.7,64.4,37.1,64.5,36.2,64.6z"/>
	<path class="st0" d="M55.3,17c-1.6,1.6-3.1,3.2-4.7,4.7c-0.3,0.3-0.7,0.6-1.1,0.6c-0.4,0-0.8-0.3-1.1-0.7c-0.3-0.4-0.2-0.9,0.1-1.3
		c0.1-0.1,0.2-0.3,0.4-0.4c2.3-2.3,4.5-4.6,6.8-6.8c0.6-0.6,1.4-0.6,2,0c2.3,2.3,4.7,4.7,7,7c0.6,0.6,0.7,1.4,0.1,1.9
		c-0.5,0.6-1.3,0.5-2-0.1c-1.4-1.4-2.9-2.8-4.3-4.3c-0.1-0.1-0.3-0.3-0.6-0.5c0,0.4,0,0.6,0,0.8c0,5.4,0.1,10.9,0,16.3
		c-0.2,7.8-3.7,13.8-10.2,18.1c-4.3,2.9-9.2,4-14.3,3.5C23.3,54.9,14.9,47,13.4,37c-1.8-11.9,5.7-22.9,17.6-25.4
		c1.4-0.3,2.9-0.4,4.4-0.5c0.9-0.1,1.4,0.5,1.5,1.2c0,0.7-0.6,1.3-1.4,1.3c-1.9,0-3.8,0.2-5.6,0.8C22.3,17,17.5,22.2,16,30
		c-1.9,10.7,4.8,20.6,15.4,22.8c10.7,2.3,21-4.5,23.4-15.1c0.3-1.5,0.5-3,0.5-4.5c0.1-5.2,0-10.5,0-15.7
		C55.3,17.4,55.3,17.3,55.3,17z"/>
	<path class="st0" d="M35.5,44.4c6,0,10.8-4.7,10.9-10.7c0-0.9,0.5-1.5,1.3-1.5c0.8,0,1.3,0.6,1.3,1.6c0,6.6-5.3,12.4-11.8,13.1
		c-7.4,0.9-13.8-3.9-15.1-11.3c-1.2-7,3.9-14.3,11-15.4c0.7-0.1,1.5-0.2,2.2-0.2c0.8,0,1.4,0.5,1.5,1.3c0,0.7-0.6,1.3-1.4,1.3
		c-6.4,0.2-11.2,5.4-10.8,11.8C24.9,40,29.8,44.4,35.5,44.4z"/>
</g>
</svg>
