<svg aria-hidden="true" style="position: absolute; width: 0; height: 0; overflow: hidden;" version="1.1" xmlns="http://www.w3.org/2000/svg" xmlns:xlink="http://www.w3.org/1999/xlink">
<defs>
<symbol id="icon-private-outpatient" viewBox="0 0 33 32">
<path fill="#8d8559" style="fill: var(--color1, #8d8559)" d="M16.382 3.248c0.143 0.096 0.239 0.143 0.334 0.191 0.716 0.43 1.433 0.86 2.197 1.29 0.191 0.143 0.334 0.287 0.191 0.525s-0.334 0.239-0.573 0.096c-1.194-0.716-2.388-1.433-3.534-2.149-0.334-0.191-0.334-0.525 0-0.716 1.146-0.716 2.34-1.385 3.487-2.102 0.191-0.143 0.382-0.143 0.525 0.096 0.143 0.191 0.096 0.382-0.143 0.525-0.716 0.43-1.385 0.86-2.102 1.242-0.096 0.048-0.191 0.096-0.287 0.191 0.621 0.048 1.242 0.096 1.863 0.143 3.916 0.525 7.116 2.293 9.552 5.349 1.815 2.197 2.818 4.776 3.152 7.642 0.764 7.26-4.107 14.042-11.224 15.666-7.498 1.719-14.949-2.484-17.194-9.791-1.528-4.919-0.621-9.504 2.579-13.564 0.096-0.096 0.239-0.239 0.382-0.239 0.096 0 0.287 0.096 0.287 0.191 0.048 0.143 0 0.334-0.048 0.43-0.382 0.573-0.812 1.098-1.146 1.672-1.528 2.531-2.197 5.254-1.958 8.215 0.478 5.97 4.537 10.794 10.269 12.37 7.499 2.006 15.284-2.722 16.955-10.269 1.528-6.878-2.054-13.612-8.645-16.143-1.528-0.573-3.104-0.86-4.728-0.86 0 0-0.096 0-0.191 0z"></path>
<path fill="#8d8559" style="fill: var(--color1, #8d8559)" d="M16.525 7.642c5.206 0 9.457 4.298 9.457 9.504-0.048 5.206-4.299 9.457-9.504 9.409-5.206 0-9.457-4.299-9.457-9.504 0.048-5.206 4.299-9.457 9.504-9.409zM7.737 17.099c0 4.824 3.916 8.74 8.74 8.74s8.74-3.916 8.74-8.74c0-4.824-3.916-8.74-8.74-8.74s-8.74 3.916-8.74 8.74z"></path>
<path fill="#8d8559" style="fill: var(--color1, #8d8559)" d="M16.573 21.827c-0.955-0.048-1.815-0.191-2.484-0.764-0.191-0.143-0.334-0.334-0.478-0.525s-0.096-0.382 0.096-0.478c0.143-0.048 0.382-0.048 0.43 0.048 1.003 1.099 2.293 1.146 3.582 0.716 0.382-0.143 0.669-0.43 0.955-0.716 0.191-0.143 0.334-0.287 0.573-0.143 0.191 0.143 0.191 0.334 0.048 0.573-0.525 0.716-1.242 1.003-2.054 1.146-0.239 0.143-0.478 0.143-0.669 0.143z"></path>
<path fill="#8d8559" style="fill: var(--color1, #8d8559)" d="M13.946 14.902c0 0.382-0.334 0.716-0.716 0.716s-0.716-0.334-0.716-0.716c0-0.382 0.334-0.716 0.716-0.716s0.716 0.334 0.716 0.716z"></path>
<path fill="#8d8559" style="fill: var(--color1, #8d8559)" d="M19.773 15.618c-0.382 0-0.716-0.334-0.716-0.716s0.334-0.716 0.764-0.716c0.382 0 0.716 0.334 0.716 0.716-0.048 0.382-0.382 0.716-0.764 0.716z"></path>
</symbol>
<symbol id="icon-referal-pathways" viewBox="0 0 33 32">
<path fill="#8d8559" style="fill: var(--color1, #8d8559)" d="M17.29 30.854c-7.164-0.048-13.087-4.681-14.758-11.272-2.006-8.072 3.009-16.239 11.081-18.054 1.051-0.239 2.101-0.382 3.152-0.382 0.478 0 0.764 0.191 0.764 0.573s-0.287 0.621-0.764 0.669c-1.337 0-2.627 0.191-3.869 0.621-4.776 1.624-7.976 4.872-9.17 9.887-1.194 5.063 0.239 9.457 3.964 13.087 2.101 2.054 4.681 3.2 7.594 3.534 4.537 0.525 8.454-0.907 11.606-4.203 2.054-2.149 3.248-4.728 3.582-7.69 0.048-0.525 0.096-1.003 0.096-1.528 0.048-0.382 0.287-0.669 0.621-0.669s0.621 0.287 0.621 0.669c-0.096 4.728-1.958 8.597-5.636 11.558-2.006 1.624-4.346 2.627-6.878 3.057-0.812 0.048-1.576 0.096-2.006 0.143z"></path>
<path fill="#8d8559" style="fill: var(--color1, #8d8559)" d="M26.412 8.119c-0.764 0.764-1.481 1.528-2.245 2.245-0.143 0.143-0.334 0.287-0.525 0.287s-0.382-0.143-0.525-0.334c-0.143-0.191-0.096-0.43 0.048-0.621 0.048-0.048 0.096-0.143 0.191-0.191 1.099-1.098 2.149-2.197 3.248-3.248 0.287-0.287 0.669-0.287 0.955 0 1.099 1.098 2.245 2.245 3.343 3.343 0.287 0.287 0.334 0.669 0.048 0.907-0.239 0.287-0.621 0.239-0.955-0.048-0.669-0.669-1.385-1.337-2.054-2.054-0.048-0.048-0.143-0.143-0.287-0.239 0 0.191 0 0.287 0 0.382 0 2.579 0.048 5.206 0 7.785-0.096 3.725-1.767 6.591-4.872 8.645-2.054 1.385-4.394 1.91-6.83 1.672-4.824-0.43-8.836-4.203-9.552-8.979-0.86-5.684 2.722-10.937 8.406-12.131 0.669-0.143 1.385-0.191 2.101-0.239 0.43-0.048 0.669 0.239 0.716 0.573 0 0.334-0.287 0.621-0.669 0.621-0.907 0-1.815 0.096-2.675 0.382-3.63 1.242-5.922 3.725-6.639 7.451-0.907 5.11 2.293 9.839 7.355 10.89 5.11 1.099 10.030-2.149 11.176-7.212 0.143-0.716 0.239-1.433 0.239-2.149 0.048-2.484 0-5.015 0-7.498 0-0.048 0-0.096 0-0.239z"></path>
<path fill="#8d8559" style="fill: var(--color1, #8d8559)" d="M16.955 21.206c2.866 0 5.158-2.245 5.206-5.11 0-0.43 0.239-0.716 0.621-0.716s0.621 0.287 0.621 0.764c0 3.152-2.531 5.922-5.636 6.257-3.534 0.43-6.591-1.863-7.212-5.397-0.573-3.343 1.863-6.83 5.254-7.355 0.334-0.048 0.716-0.096 1.051-0.096 0.382 0 0.669 0.239 0.716 0.621 0 0.334-0.287 0.621-0.669 0.621-3.057 0.096-5.349 2.579-5.158 5.636 0.143 2.675 2.484 4.776 5.206 4.776z"></path>
</symbol>
<symbol id="icon-what-is-hypnozis" viewBox="0 0 33 32">
<path fill="#8d8559" style="fill: var(--color1, #8d8559)" d="M17.337 0.764c0.764 0.191 1.242 0.478 1.672 1.051 0.669 0.812 0.907 1.767 0.525 2.77-0.287 0.764-0.716 1.481-1.051 2.197-0.191 0.43-0.43 0.812-0.573 1.242-0.239 0.525-0.048 0.955 0.334 1.337 0.478 0.525 1.099 0.764 1.767 0.86 0.191 0.048 0.43 0.048 0.669 0 0.478-0.048 0.812-0.334 0.955-0.764 0.239-0.764 0.478-1.528 0.764-2.293 0.143-0.43 0.334-0.86 0.478-1.242 0.525-1.242 1.863-1.624 2.722-1.576 1.194 0.096 2.054 0.621 2.484 1.767 0.43 1.194 0.191 2.293-0.716 3.2-0.287 0.287-0.716 0.478-1.099 0.621-0.573 0.239-1.194 0.43-1.767 0.621-0.382 0.143-0.764 0.239-1.146 0.382-0.907 0.287-1.099 0.86-1.003 1.624 0.048 0.669 0.334 1.242 0.764 1.767 0.478 0.525 1.003 0.669 1.672 0.334s1.29-0.669 1.958-1.003c0.621-0.287 1.242-0.573 1.863-0.716 1.385-0.287 2.913 0.86 3.2 2.293 0.382 1.815-1.337 3.678-3.152 3.391-0.478-0.096-0.955-0.287-1.433-0.478-0.812-0.382-1.624-0.812-2.436-1.242-0.621-0.287-1.146-0.191-1.624 0.334-0.573 0.621-0.86 1.337-0.812 2.149 0 0.573 0.334 1.003 0.86 1.194 0.812 0.287 1.672 0.525 2.484 0.812 0.43 0.143 0.812 0.334 1.194 0.525 1.099 0.621 1.624 2.102 1.194 3.391-0.382 1.242-1.576 2.006-2.866 1.91-1.194-0.096-2.054-0.621-2.484-1.767-0.239-0.621-0.478-1.29-0.669-1.958-0.143-0.43-0.287-0.86-0.43-1.29-0.239-0.621-0.669-0.955-1.337-0.907-0.764 0.048-1.481 0.287-2.054 0.86-0.525 0.478-0.621 0.955-0.287 1.624 0.191 0.382 0.382 0.764 0.573 1.194 0.334 0.669 0.669 1.29 0.955 2.006 0.478 1.194 0.096 2.436-0.907 3.248-0.812 0.669-1.719 0.86-2.675 0.478-1.051-0.382-1.672-1.194-1.91-2.245-0.096-0.525 0-1.003 0.191-1.481 0.287-0.621 0.573-1.29 0.907-1.91 0.239-0.43 0.478-0.907 0.669-1.337 0.239-0.478 0.191-0.955-0.143-1.337-0.669-0.764-1.528-1.099-2.579-1.003-0.478 0.048-0.812 0.334-0.955 0.764-0.287 0.812-0.525 1.672-0.812 2.484-0.096 0.334-0.287 0.669-0.43 1.003-0.525 1.242-1.863 1.624-2.722 1.576-1.194-0.048-2.101-0.621-2.484-1.767-0.43-1.194-0.239-2.293 0.716-3.2 0.287-0.239 0.621-0.43 0.955-0.573 0.669-0.287 1.385-0.478 2.102-0.716 0.43-0.143 0.812-0.287 1.242-0.43 0.525-0.239 0.716-0.669 0.716-1.194 0-0.86-0.334-1.576-0.907-2.149-0.43-0.43-0.907-0.525-1.481-0.239-0.43 0.239-0.907 0.478-1.337 0.669-0.669 0.334-1.337 0.669-2.006 0.955-1.337 0.525-2.77-0.287-3.391-1.29-0.669-1.146-0.478-2.531 0.525-3.439 0.86-0.764 1.863-1.051 2.961-0.621 0.716 0.287 1.385 0.669 2.054 1.003 0.43 0.191 0.86 0.43 1.29 0.621s0.812 0.096 1.194-0.143c0.716-0.525 1.242-1.767 1.051-2.675-0.096-0.573-0.382-0.907-0.812-1.051-0.812-0.287-1.624-0.525-2.388-0.764-0.382-0.143-0.764-0.287-1.098-0.478-1.098-0.525-1.576-1.481-1.576-2.675 0-1.146 0.573-2.054 1.672-2.531 1.146-0.478 2.197-0.287 3.104 0.525 0.239 0.191 0.43 0.478 0.573 0.764 0.334 0.812 0.573 1.624 0.86 2.436 0.143 0.43 0.287 0.812 0.43 1.242 0.191 0.478 0.716 0.764 1.29 0.716 0.716-0.048 1.337-0.287 1.91-0.764 0.573-0.525 0.716-1.051 0.382-1.719-0.191-0.382-0.382-0.764-0.573-1.146-0.334-0.669-0.669-1.29-0.907-1.958-0.478-1.29-0.096-2.627 1.051-3.391 0.812-0.573 1.719-0.573 2.102-0.478zM12.036 12.37c0 0.907-0.478 1.958-1.146 2.531-0.573 0.478-1.194 0.669-1.91 0.43-0.43-0.143-0.812-0.382-1.194-0.573-0.764-0.382-1.528-0.764-2.293-1.098-0.334-0.143-0.716-0.191-1.098-0.096-1.385 0.287-2.245 1.767-1.719 3.009 0.382 0.907 1.624 1.91 2.961 1.29 0.287-0.143 0.573-0.239 0.812-0.334 0.764-0.382 1.481-0.812 2.245-1.146 0.812-0.382 1.576-0.239 2.197 0.382 0.716 0.716 1.051 1.576 1.051 2.531 0 0.764-0.287 1.433-1.051 1.767-0.43 0.191-0.907 0.334-1.385 0.478-0.716 0.239-1.433 0.43-2.101 0.716-0.86 0.334-1.29 1.003-1.385 1.863-0.143 1.051 0.478 2.054 1.433 2.388 1.051 0.334 2.34-0.096 2.77-1.003 0.191-0.478 0.43-1.003 0.573-1.481 0.239-0.716 0.43-1.433 0.716-2.149 0.239-0.621 0.669-1.003 1.337-1.099 1.146-0.239 2.722 0.43 3.296 1.433 0.287 0.478 0.382 1.003 0.191 1.576-0.143 0.382-0.382 0.764-0.573 1.194-0.382 0.764-0.764 1.481-1.098 2.245-0.096 0.239-0.191 0.573-0.143 0.86 0.048 1.003 0.86 1.958 1.815 2.149s1.958-0.287 2.484-1.242c0.287-0.525 0.382-1.099 0.143-1.672-0.191-0.525-0.43-1.003-0.669-1.528-0.287-0.573-0.621-1.146-0.907-1.719-0.382-0.86-0.239-1.624 0.382-2.245s1.337-0.955 2.197-1.051c0.955-0.096 1.719 0.287 2.054 1.003 0.191 0.43 0.334 0.907 0.478 1.337 0.239 0.716 0.478 1.481 0.716 2.197 0.287 0.812 0.907 1.194 1.767 1.337 1.099 0.191 2.102-0.43 2.436-1.433s-0.048-2.34-1.051-2.77c-0.525-0.239-1.051-0.43-1.576-0.621-0.669-0.239-1.337-0.43-2.006-0.669-0.573-0.191-0.955-0.669-1.099-1.29-0.287-1.146 0.43-2.77 1.433-3.391 0.478-0.287 1.003-0.382 1.528-0.191 0.43 0.143 0.812 0.382 1.194 0.573 0.812 0.382 1.576 0.764 2.388 1.146 0.382 0.191 0.764 0.143 1.146 0.048 1.242-0.334 2.006-1.624 1.719-2.77-0.287-1.098-1.672-2.149-3.009-1.576-0.478 0.191-0.907 0.382-1.385 0.621-0.573 0.287-1.194 0.621-1.767 0.907-0.812 0.382-1.576 0.239-2.197-0.382-0.716-0.716-1.099-1.624-1.099-2.627 0-0.716 0.287-1.337 0.955-1.672 0.43-0.191 0.907-0.334 1.337-0.478 0.764-0.239 1.528-0.478 2.245-0.764 0.907-0.334 1.29-1.098 1.337-2.054 0.048-1.051-0.573-1.958-1.528-2.197-1.003-0.239-2.245 0.096-2.675 1.099-0.191 0.43-0.382 0.907-0.525 1.337-0.239 0.716-0.478 1.481-0.716 2.197-0.239 0.621-0.669 1.003-1.337 1.146-1.099 0.239-2.675-0.43-3.296-1.385-0.334-0.525-0.43-1.098-0.191-1.672 0.191-0.43 0.382-0.812 0.573-1.194 0.334-0.669 0.716-1.385 1.003-2.054 0.143-0.287 0.191-0.573 0.191-0.907 0-1.051-0.907-2.054-1.91-2.245-1.003-0.143-2.101 0.478-2.484 1.528 0 0.478-0.048 0.907 0.143 1.385 0.191 0.525 0.43 1.003 0.669 1.528 0.287 0.621 0.621 1.194 0.955 1.815 0.382 0.764 0.239 1.528-0.334 2.149-0.669 0.716-1.528 1.098-2.531 1.146-0.764 0.048-1.433-0.287-1.767-1.003-0.191-0.43-0.334-0.86-0.478-1.29-0.239-0.764-0.478-1.528-0.764-2.293-0.334-0.907-1.098-1.337-2.054-1.337-1.051-0.048-1.958 0.621-2.197 1.624-0.239 0.955 0.096 2.197 1.146 2.627 0.382 0.143 0.764 0.334 1.146 0.478 0.764 0.239 1.528 0.478 2.293 0.764 0.812 0.287 1.194 0.907 1.194 1.863z"></path>
<path fill="#8d8559" style="fill: var(--color1, #8d8559)" d="M16.812 20.299c-2.484 0-4.49-2.006-4.49-4.49s2.006-4.49 4.49-4.49c2.484 0 4.49 2.006 4.49 4.49 0.048 2.484-1.958 4.49-4.49 4.49zM16.812 11.893c-2.149 0-3.916 1.719-3.916 3.869 0 2.197 1.719 3.964 3.916 3.964 2.149 0 3.916-1.767 3.916-3.916s-1.719-3.916-3.916-3.916z"></path>
</symbol>
<symbol id="icon-facebook2" viewBox="0 0 32 32">
<path d="M29 0h-26c-1.65 0-3 1.35-3 3v26c0 1.65 1.35 3 3 3h13v-14h-4v-4h4v-2c0-3.306 2.694-6 6-6h4v4h-4c-1.1 0-2 0.9-2 2v2h6l-1 4h-5v14h9c1.65 0 3-1.35 3-3v-26c0-1.65-1.35-3-3-3z"></path>
</symbol>
<symbol id="icon-instagram" viewBox="0 0 32 32">
<path d="M16 2.881c4.275 0 4.781 0.019 6.462 0.094 1.563 0.069 2.406 0.331 2.969 0.55 0.744 0.288 1.281 0.638 1.837 1.194 0.563 0.563 0.906 1.094 1.2 1.838 0.219 0.563 0.481 1.412 0.55 2.969 0.075 1.688 0.094 2.194 0.094 6.463s-0.019 4.781-0.094 6.463c-0.069 1.563-0.331 2.406-0.55 2.969-0.288 0.744-0.637 1.281-1.194 1.837-0.563 0.563-1.094 0.906-1.837 1.2-0.563 0.219-1.413 0.481-2.969 0.55-1.688 0.075-2.194 0.094-6.463 0.094s-4.781-0.019-6.463-0.094c-1.563-0.069-2.406-0.331-2.969-0.55-0.744-0.288-1.281-0.637-1.838-1.194-0.563-0.563-0.906-1.094-1.2-1.837-0.219-0.563-0.481-1.413-0.55-2.969-0.075-1.688-0.094-2.194-0.094-6.463s0.019-4.781 0.094-6.463c0.069-1.563 0.331-2.406 0.55-2.969 0.288-0.744 0.638-1.281 1.194-1.838 0.563-0.563 1.094-0.906 1.838-1.2 0.563-0.219 1.412-0.481 2.969-0.55 1.681-0.075 2.188-0.094 6.463-0.094zM16 0c-4.344 0-4.887 0.019-6.594 0.094-1.7 0.075-2.869 0.35-3.881 0.744-1.056 0.412-1.95 0.956-2.837 1.85-0.894 0.888-1.438 1.781-1.85 2.831-0.394 1.019-0.669 2.181-0.744 3.881-0.075 1.713-0.094 2.256-0.094 6.6s0.019 4.887 0.094 6.594c0.075 1.7 0.35 2.869 0.744 3.881 0.413 1.056 0.956 1.95 1.85 2.837 0.887 0.887 1.781 1.438 2.831 1.844 1.019 0.394 2.181 0.669 3.881 0.744 1.706 0.075 2.25 0.094 6.594 0.094s4.888-0.019 6.594-0.094c1.7-0.075 2.869-0.35 3.881-0.744 1.050-0.406 1.944-0.956 2.831-1.844s1.438-1.781 1.844-2.831c0.394-1.019 0.669-2.181 0.744-3.881 0.075-1.706 0.094-2.25 0.094-6.594s-0.019-4.887-0.094-6.594c-0.075-1.7-0.35-2.869-0.744-3.881-0.394-1.063-0.938-1.956-1.831-2.844-0.887-0.887-1.781-1.438-2.831-1.844-1.019-0.394-2.181-0.669-3.881-0.744-1.712-0.081-2.256-0.1-6.6-0.1v0z"></path>
<path d="M16 7.781c-4.537 0-8.219 3.681-8.219 8.219s3.681 8.219 8.219 8.219 8.219-3.681 8.219-8.219c0-4.537-3.681-8.219-8.219-8.219zM16 21.331c-2.944 0-5.331-2.387-5.331-5.331s2.387-5.331 5.331-5.331c2.944 0 5.331 2.387 5.331 5.331s-2.387 5.331-5.331 5.331z"></path>
<path d="M26.462 7.456c0 1.060-0.859 1.919-1.919 1.919s-1.919-0.859-1.919-1.919c0-1.060 0.859-1.919 1.919-1.919s1.919 0.859 1.919 1.919z"></path>
</symbol>
<symbol id="icon-linkedin" viewBox="0 0 32 32">
<path d="M29 0h-26c-1.65 0-3 1.35-3 3v26c0 1.65 1.35 3 3 3h26c1.65 0 3-1.35 3-3v-26c0-1.65-1.35-3-3-3zM12 26h-4v-14h4v14zM10 10c-1.106 0-2-0.894-2-2s0.894-2 2-2c1.106 0 2 0.894 2 2s-0.894 2-2 2zM26 26h-4v-8c0-1.106-0.894-2-2-2s-2 0.894-2 2v8h-4v-14h4v2.481c0.825-1.131 2.087-2.481 3.5-2.481 2.488 0 4.5 2.238 4.5 5v9z"></path>
</symbol>
</defs>
</svg>
